# ProBuilder 5.0.7
# https://unity3d.com/unity/features/worldbuilding/probuilder
# 27-04-2023 19:47:54

mtllib ./PolyShape.mtl
o PolyShape

g PolyShape
v 4.335661 -11.80755 0.7500402
v 2.38108 -11.80754 0.6983721
v -0.3197978 -11.80754 0.579502
v -2.73641 -11.80754 -0.03216178
v -4.619981 -11.80754 -1.020487
v -7.74744 -11.80754 -2.910839
v 0.2844927 -11.80754 2.680704
v 4.442429 -11.80754 2.900171
v 13.6464 -11.80754 -1.519984
v 11.9051 -11.80754 -0.6859075
v 10.02165 -11.80754 0.05311089
v 7.320835 -11.80754 0.7778257
v -7.74744 -4.768372E-07 -2.910841
v -4.619982 3.576279E-07 -1.02049
v 0.2844921 1.66893E-06 2.680701
v -2.736411 -2.980232E-07 -0.03216445
v -0.3197984 1.311302E-06 0.5794993
v 2.381079 7.748604E-07 0.6983694
v 4.442429 1.549721E-06 2.900168
v 4.335661 -5.960464E-07 0.7500376
v 7.320834 1.311302E-06 0.777823
v 10.02165 9.536743E-07 0.05310822
v 11.9051 0 -0.6859102
v 13.6464 1.907349E-06 -1.519986

vt 4.335661 0.7500375
vt 2.381079 0.6983694
vt -0.3197982 0.5794992
vt -2.736411 -0.03216452
vt -4.619982 -1.02049
vt -7.74744 -2.910842
vt 0.2844922 2.680701
vt 4.442429 2.900168
vt 13.6464 -1.519986
vt 11.9051 -0.6859103
vt 10.02165 0.05310815
vt 7.320834 0.7778229
vt 7.74744 -2.910841
vt 4.619982 -1.02049
vt -0.2844921 2.680701
vt 2.736411 -0.03216445
vt 0.3197984 0.5794993
vt -2.381079 0.6983694
vt -4.442429 2.900168
vt -4.335661 0.7500376
vt -7.320834 0.777823
vt -10.02165 0.05310822
vt -11.9051 -0.6859102
vt -13.6464 -1.519986
vt 8.136096 -7.33424E-07
vt 4.481725 1.010411E-07
vt 8.136095 -11.80754
vt 4.481723 -11.80754
vt 1.765097 1.331275E-06
vt -8.02149 -8.144922E-07
vt 1.765099 -11.80754
vt -8.021488 -11.80754
vt 4.565165 1.309305E-07
vt 2.438048 -5.247206E-07
vt 4.565163 -11.80754
vt 2.438046 -11.80754
vt 2.660649 -4.295008E-07
vt 0.16783 1.179825E-06
vt 2.660648 -11.80754
vt 0.1678288 -11.80754
vt 0.294009 1.177779E-06
vt -2.409483 6.413374E-07
vt 0.2940083 -11.80754
vt -2.409484 -11.80754
vt 4.589119 9.649498E-07
vt 0.4253944 1.084159E-06
vt 4.589119 -11.80754
vt 0.425395 -11.80754
vt -2.398702 6.312951E-07
vt -4.353967 -7.396118E-07
vt -2.398703 -11.80754
vt -4.353967 -11.80755
vt -4.342454 -7.569775E-07
vt -7.327757 1.150371E-06
vt -4.342455 -11.80755
vt -7.327757 -11.80754
vt -6.869123 6.747745E-07
vt -9.665484 3.171466E-07
vt -6.869123 -11.80754
vt -9.665484 -11.80754
vt -9.309799 5.969228E-08
vt -11.33304 -8.93982E-07
vt -9.309799 -11.80754
vt -11.33304 -11.80755
vt -11.03324 -1.064167E-06
vt -12.96399 8.431818E-07
vt -11.03324 -11.80755
vt -12.96399 -11.80754
vt 12.95939 7.576039E-07
vt 2.749059 3.99976E-07
vt 12.95939 -11.80754
vt 2.749058 -11.80754

vn -1.927463E-07 -1 1.340199E-06
vn 6.991974E-05 -0.9999999 0.0001463978
vn 0.0004213608 -0.9999995 0.0008773888
vn -2.646072E-07 1 -3.659072E-09
vn -6.73902E-05 0.9999999 -0.0001408734
vn -0.0004064862 0.9999996 -0.0008463347
vn 0.5172852 -1.691968E-07 -0.8558131
vn -0.5713476 1.5489E-07 0.8207082
vn 0.4646313 -1.779179E-07 -0.8855042
vn 0.2453703 -2.100013E-07 -0.9694294
vn 0.04396911 -2.248323E-07 -0.9990329
vn -0.05270923 2.196752E-07 0.99861
vn 0.02642512 -2.260141E-07 -0.9996508
vn 0.009307405 -2.267749E-07 -0.9999567
vn -0.2591635 -2.298654E-07 -0.9658334
vn -0.3652638 -2.406727E-07 -0.930904
vn -0.4319948 -2.397622E-07 -0.9018761
vn 0.4329099 2.351859E-07 0.9014372

usemtl ProBuilderDefault
f 8/8/2 10/10/2 9/9/3
f 8/8/2 11/11/1 10/10/2
f 8/8/2 12/12/1 11/11/1
f 1/1/1 12/12/1 8/8/2
f 2/2/1 1/1/1 8/8/2
f 7/7/1 2/2/1 8/8/2
f 3/3/1 2/2/1 7/7/1
f 4/4/1 3/3/1 7/7/1
f 5/5/1 4/4/1 7/7/1
f 6/6/1 5/5/1 7/7/1
f 15/15/4 14/14/4 13/13/4
f 15/15/4 16/16/4 14/14/4
f 15/15/4 17/17/4 16/16/4
f 15/15/4 18/18/4 17/17/4
f 19/19/5 18/18/4 15/15/4
f 19/19/5 20/20/4 18/18/4
f 19/19/5 21/21/4 20/20/4
f 22/22/4 21/21/4 19/19/5
f 23/23/5 22/22/4 19/19/5
f 24/24/6 23/23/5 19/19/5
f 14/26/7 5/28/7 6/27/7
f 6/27/7 13/25/7 14/26/7
f 13/30/8 6/32/8 7/31/8
f 7/31/8 15/29/8 13/30/8
f 16/34/9 4/36/9 5/35/9
f 5/35/9 14/33/9 16/34/9
f 17/38/10 3/40/10 4/39/10
f 4/39/10 16/37/10 17/38/10
f 18/42/11 2/44/11 3/43/11
f 3/43/11 17/41/11 18/42/11
f 15/46/12 7/48/12 8/47/12
f 8/47/12 19/45/12 15/46/12
f 20/50/13 1/52/13 2/51/13
f 2/51/13 18/49/13 20/50/13
f 21/54/14 12/56/14 1/55/14
f 1/55/14 20/53/14 21/54/14
f 22/58/15 11/60/15 12/59/15
f 12/59/15 21/57/15 22/58/15
f 23/62/16 10/64/16 11/63/16
f 11/63/16 22/61/16 23/62/16
f 24/66/17 9/68/17 10/67/17
f 10/67/17 23/65/17 24/66/17
f 19/70/18 8/72/18 9/71/18
f 9/71/18 24/69/18 19/70/18

